<?xml version="1.0" ?><svg xmlns="http://www.w3.org/2000/svg" xmlns:xlink="http://www.w3.org/1999/xlink" version="1.1" viewBox="0 0 512 512" style="enable-background:new 0 0 512 512;" xml:space="preserve"><g id="_x31_0_x2C__cupcake_x2C__dessert_x2C__sweet_x2C__baker_x2C__food_x2C__bakery"><g><path style="fill:#FFFFFF;" d="M340.999,61v30l-85,13l-84.84-13c2.13-27.97,25.49-50,54.01-50h9.77c22.53,0,43.57-11.26,56.06-30    c13.8,0,26.3,5.6,35.35,14.65C335.399,34.7,340.999,47.2,340.999,61z"/><path style="fill:#9DCAFC;" d="M340.999,91c-16.844,0-153.559,0-170,0c-27.61,0-50,22.39-50,50v24.17h270V141    C390.999,113.39,368.609,91,340.999,91z"/><path style="fill:#FFFFFF;" d="M370.999,161h-230c-27.322,0-50,22.108-50,50v24.16l57,55.24l236-4.8l37-50.44V211    C420.999,183.152,398.377,161,370.999,161z"/><path style="fill:#FFFFFF;" d="M305.809,231c30.931,0,53.46,27.732,49.41,56.08l0.78,97.72L328.039,501h-72.04l-10.4-130.6    l10.4-89.59C255.999,253.3,278.309,231,305.809,231z"/><path style="fill:#9DCAFC;" d="M179.199,370.4l4.76,130.6h-44.05c-9.02,0-16.92-6.04-19.29-14.74l-54.1-198.36    c-7.819-28.575,13.689-56.9,43.45-56.9c22.69,0,41.83,16.87,44.69,39.37l2.1,16.51C156.759,287.127,155.851,283.571,179.199,370.4    z"/><path style="fill:#9DCAFC;" d="M420.999,235.16c19.11,8.87,30.5,30.68,24.48,52.74l-54.1,198.36    c-2.37,8.7-10.27,14.74-19.29,14.74h-44.05c12.893-101.464,27.191-213.998,29.3-230.63    C361.221,239.836,393.743,222.485,420.999,235.16z"/><path style="fill:#FFFFFF;" d="M255.999,280.81V501h-72.04c-29.527-232.365-27.58-215.67-27.58-220.29    c0-27.04,21.97-49.71,49.81-49.71C233.699,231,255.999,253.3,255.999,280.81z"/><g><path style="fill:#4269A7;" d="M430.999,229.224V211c0-22.159-12.084-41.537-30-51.928V141c0-29.676-21.661-54.374-50-59.151V61     c0-33.151-26.855-60-60-60c-3.344,0-6.467,1.672-8.321,4.454C272.017,21.45,254.171,31,234.94,31h-9.771     c-30.401,0-56.433,21.629-62.715,50.619c-29.05,4.162-51.455,29.199-51.455,59.381v18.072c-17.916,10.391-30,29.769-30,51.928     v18.222c-19.795,12.29-30.852,36.662-24.131,61.305l54.1,198.366c3.55,13.016,15.451,22.106,28.942,22.106     c48.981,0,181.214,0,232.178,0c13.491,0,25.393-9.091,28.942-22.106l54.1-198.366     C461.856,265.866,450.787,241.509,430.999,229.224z M225.169,51h9.771c23.972,0,46.347-11.003,60.952-29.705     c19.471,2.363,35.107,18.976,35.107,39.705v20H183.345C189.306,63.528,205.971,51,225.169,51z M130.999,141     c0-22.056,17.944-40,40-40h170c22.056,0,40,17.944,40,40v10.849c-9.542-1.608,0.191-0.544-240-0.849     c-3.408,0-6.746,0.301-10,0.849V141z M100.999,211c0-22.056,17.944-40,40-40h230c22.056,0,40,17.944,40,40v10.739     c-22.989-3.731-44.475,7.155-55.787,25.407c-24.04-35.191-75.696-34.712-99.213,0.601c-23.529-35.33-75.198-35.774-99.212-0.599     c-11.304-18.24-32.778-29.142-55.788-25.409V211z M245.999,491h-53.229c-1.52-11.967-24.53-193.069-26.068-205.177     C163.678,262.014,182.265,241,206.193,241c21.949,0,39.807,17.857,39.807,39.807V491z M130.263,483.632l-54.1-198.366     C70.079,262.95,86.861,241,109.973,241c17.601,0,32.547,13.167,34.766,30.628c0.877,6.905,26.859,211.401,27.872,219.372h-32.7     C135.414,491,131.447,487.97,130.263,483.632z M265.999,280.807c0-21.949,17.857-39.807,39.807-39.807     c24,0,42.506,21.086,39.49,44.823c-1.539,12.11-24.548,193.21-26.068,205.177h-53.229V280.807z M435.835,285.266l-54.1,198.366     c-1.184,4.338-5.15,7.368-9.647,7.368h-32.7c0.982-7.73,26.89-211.64,27.872-219.372C369.479,254.167,384.425,241,402.026,241     C425.157,241,441.915,262.969,435.835,285.266z"/></g></g></g><g id="Layer_1"/></svg>